<svg width="147" height="20" viewBox="0 0 147 20" fill="none" xmlns="http://www.w3.org/2000/svg">
<path d="M6.66547 16.3247C5.31614 16.3247 4.15747 16.0973 3.18947 15.6427C2.22147 15.188 1.46614 14.55 0.923469 13.7287C0.380802 12.9073 0.0728021 11.9393 -0.000531226 10.8247L3.36547 10.6707C3.45347 11.2867 3.62947 11.8147 3.89347 12.2547C4.17214 12.68 4.5388 13.0027 4.99347 13.2227C5.4628 13.4427 6.0348 13.5527 6.70947 13.5527C7.2668 13.5527 7.73614 13.4867 8.11747 13.3547C8.51347 13.2227 8.81414 13.0247 9.01947 12.7607C9.2248 12.482 9.32747 12.1447 9.32747 11.7487C9.32747 11.382 9.23947 11.0667 9.06347 10.8027C8.88747 10.524 8.55014 10.2747 8.05147 10.0547C7.5528 9.81999 6.81947 9.59266 5.85147 9.37266C4.5168 9.06466 3.4388 8.71999 2.61747 8.33866C1.8108 7.95732 1.22414 7.48066 0.857469 6.90866C0.490802 6.32199 0.307469 5.58866 0.307469 4.70866C0.307469 3.76999 0.534802 2.94866 0.989469 2.24466C1.4588 1.54066 2.13347 0.990655 3.01347 0.594655C3.89347 0.198656 4.94214 0.000656009 6.15947 0.000656009C7.45014 0.000656009 8.5428 0.227989 9.43747 0.682655C10.3321 1.13732 11.0288 1.76066 11.5275 2.55266C12.0408 3.34466 12.3488 4.25399 12.4515 5.28066L9.10747 5.45666C9.06347 4.91399 8.9168 4.44466 8.66747 4.04866C8.41814 3.63799 8.0808 3.32266 7.65547 3.10266C7.23014 2.88266 6.7168 2.77266 6.11547 2.77266C5.3528 2.77266 4.75147 2.94132 4.31147 3.27866C3.88614 3.61599 3.67347 4.05599 3.67347 4.59866C3.67347 4.97999 3.7688 5.30266 3.95947 5.56666C4.1648 5.81599 4.4948 6.03599 4.94947 6.22666C5.4188 6.41732 6.0788 6.60066 6.92947 6.77666C8.38147 7.06999 9.52547 7.44399 10.3615 7.89866C11.2121 8.33866 11.8135 8.86666 12.1655 9.48266C12.5175 10.0987 12.6935 10.8027 12.6935 11.5947C12.6935 12.5627 12.4441 13.406 11.9455 14.1247C11.4615 14.8287 10.7648 15.3713 9.85547 15.7527C8.9608 16.134 7.89747 16.3247 6.66547 16.3247ZM15.7989 19.2727V16.8087H17.3609C17.7422 16.8087 18.0209 16.75 18.1969 16.6327C18.3876 16.53 18.5342 16.3393 18.6369 16.0607L18.8789 15.3787H17.9769L13.8409 4.18066H17.2069L19.9129 12.2987L22.4429 4.18066H25.8089L21.2769 17.0947C21.0129 17.872 20.6316 18.4293 20.1329 18.7667C19.6342 19.104 18.9376 19.2727 18.0429 19.2727H15.7989ZM27.2274 15.9727V4.18066H30.1974L30.3294 7.63466L29.9114 7.52466C30.0287 6.64466 30.2634 5.94066 30.6154 5.41266C30.9821 4.88466 31.4367 4.50332 31.9794 4.26866C32.5221 4.03399 33.1161 3.91666 33.7614 3.91666C34.6121 3.91666 35.3307 4.09999 35.9174 4.46666C36.5187 4.83332 36.9734 5.35399 37.2814 6.02866C37.6041 6.68866 37.7654 7.47332 37.7654 8.38266V15.9727H34.4654V9.48266C34.4654 8.85199 34.4141 8.31666 34.3114 7.87666C34.2087 7.43666 34.0254 7.10666 33.7614 6.88666C33.4974 6.65199 33.1307 6.53466 32.6614 6.53466C31.9721 6.53466 31.4441 6.79132 31.0774 7.30466C30.7107 7.80332 30.5274 8.52932 30.5274 9.48266V15.9727H27.2274ZM43.8953 16.2367C42.678 16.2367 41.6806 15.958 40.9033 15.4007C40.1406 14.8287 39.7593 14.0367 39.7593 13.0247C39.7593 11.9833 40.082 11.184 40.7273 10.6267C41.3873 10.0547 42.3553 9.63666 43.6313 9.37266L47.4373 8.62466C47.4373 7.86199 47.2613 7.28999 46.9093 6.90866C46.572 6.51266 46.0806 6.31466 45.4353 6.31466C44.8046 6.31466 44.3133 6.46132 43.9613 6.75466C43.6093 7.03332 43.382 7.45132 43.2793 8.00866L39.9573 7.85466C40.1773 6.56399 40.7566 5.58866 41.6953 4.92866C42.6486 4.25399 43.8953 3.91666 45.4353 3.91666C47.1953 3.91666 48.5153 4.33466 49.3953 5.17066C50.29 6.00666 50.7373 7.23132 50.7373 8.84466V12.8707C50.7373 13.208 50.7886 13.4353 50.8913 13.5527C51.0086 13.6553 51.1773 13.7067 51.3973 13.7067H51.7273V15.9727C51.6246 16.002 51.456 16.0313 51.2213 16.0607C51.0013 16.09 50.7813 16.1047 50.5613 16.1047C50.092 16.1047 49.652 16.024 49.2413 15.8627C48.8453 15.7013 48.5226 15.43 48.2733 15.0487C48.024 14.6527 47.8993 14.0953 47.8993 13.3767L48.1853 13.5967C48.0386 14.1247 47.7746 14.5867 47.3933 14.9827C47.0266 15.3787 46.5426 15.6867 45.9413 15.9067C45.3546 16.1267 44.6726 16.2367 43.8953 16.2367ZM44.6873 13.9707C45.23 13.9707 45.7066 13.868 46.1173 13.6627C46.528 13.4427 46.8506 13.1273 47.0853 12.7167C47.32 12.306 47.4373 11.822 47.4373 11.2647V10.6927L44.7533 11.2647C44.2253 11.3673 43.822 11.5433 43.5433 11.7927C43.2793 12.0273 43.1473 12.3353 43.1473 12.7167C43.1473 13.1127 43.2793 13.4207 43.5433 13.6407C43.8073 13.8607 44.1886 13.9707 44.6873 13.9707ZM53.4598 19.2727V4.18066H56.6278L56.6938 6.66666L56.4298 6.55666C56.7231 5.70599 57.1998 5.05332 57.8598 4.59866C58.5198 4.14399 59.2898 3.91666 60.1698 3.91666C61.2698 3.91666 62.1865 4.18799 62.9198 4.73066C63.6531 5.27332 64.2031 6.01399 64.5698 6.95266C64.9511 7.87666 65.1418 8.91799 65.1418 10.0767C65.1418 11.2207 64.9511 12.262 64.5698 13.2007C64.2031 14.1393 63.6458 14.88 62.8978 15.4227C62.1645 15.9653 61.2478 16.2367 60.1478 16.2367C59.5758 16.2367 59.0405 16.134 58.5418 15.9287C58.0431 15.7087 57.6105 15.408 57.2438 15.0267C56.8918 14.6453 56.6351 14.1907 56.4738 13.6627L56.7598 13.4867V19.2727H53.4598ZM59.2458 13.7067C60.0231 13.7067 60.6318 13.384 61.0718 12.7387C61.5265 12.0933 61.7538 11.206 61.7538 10.0767C61.7538 8.94732 61.5265 8.05999 61.0718 7.41466C60.6318 6.76932 60.0231 6.44666 59.2458 6.44666C58.7325 6.44666 58.2851 6.58599 57.9038 6.86466C57.5371 7.12866 57.2511 7.53199 57.0458 8.07466C56.8551 8.61732 56.7598 9.28466 56.7598 10.0767C56.7598 10.8687 56.8551 11.536 57.0458 12.0787C57.2511 12.6213 57.5371 13.032 57.9038 13.3107C58.2851 13.5747 58.7325 13.7067 59.2458 13.7067ZM72.2263 16.2367C71.009 16.2367 69.9897 16.068 69.1683 15.7307C68.347 15.3787 67.7163 14.9093 67.2763 14.3227C66.851 13.7213 66.609 13.032 66.5503 12.2547L69.8943 12.1447C69.997 12.702 70.2317 13.1347 70.5983 13.4427C70.965 13.7507 71.5077 13.9047 72.2263 13.9047C72.813 13.9047 73.2677 13.8093 73.5903 13.6187C73.9277 13.428 74.0963 13.1347 74.0963 12.7387C74.0963 12.4893 74.0377 12.284 73.9203 12.1227C73.803 11.9467 73.5683 11.8 73.2163 11.6827C72.879 11.5507 72.373 11.4333 71.6983 11.3307C70.4517 11.1107 69.4763 10.854 68.7723 10.5607C68.0683 10.2673 67.5697 9.88599 67.2763 9.41666C66.983 8.94732 66.8363 8.37532 66.8363 7.70066C66.8363 6.57132 67.269 5.66199 68.1343 4.97266C69.0143 4.26866 70.327 3.91666 72.0723 3.91666C73.187 3.91666 74.1183 4.09266 74.8663 4.44466C75.629 4.79666 76.2157 5.28066 76.6263 5.89666C77.0517 6.49799 77.3157 7.18732 77.4183 7.96466L74.0963 8.09666C74.0523 7.71532 73.935 7.39266 73.7443 7.12866C73.5683 6.84999 73.341 6.63732 73.0623 6.49066C72.7837 6.32932 72.4463 6.24866 72.0503 6.24866C71.4637 6.24866 71.009 6.37332 70.6863 6.62266C70.3783 6.85732 70.2243 7.17266 70.2243 7.56866C70.2243 7.86199 70.2903 8.10399 70.4223 8.29466C70.569 8.47066 70.8037 8.61732 71.1263 8.73466C71.449 8.85199 71.8817 8.94732 72.4243 9.02066C73.6857 9.19666 74.683 9.44599 75.4163 9.76866C76.1643 10.0767 76.6997 10.4653 77.0223 10.9347C77.345 11.404 77.5063 11.9833 77.5063 12.6727C77.5063 13.4353 77.2863 14.0807 76.8463 14.6087C76.4063 15.1367 75.7903 15.54 74.9983 15.8187C74.221 16.0973 73.297 16.2367 72.2263 16.2367ZM84.8438 16.2367C83.6412 16.2367 82.5925 15.9873 81.6978 15.4887C80.8178 14.9753 80.1285 14.2567 79.6298 13.3327C79.1458 12.4087 78.9038 11.3233 78.9038 10.0767C78.9038 8.82999 79.1458 7.75199 79.6298 6.84266C80.1285 5.91866 80.8178 5.19999 81.6978 4.68666C82.5778 4.17332 83.6192 3.91666 84.8218 3.91666C85.9952 3.91666 87.0145 4.17332 87.8798 4.68666C88.7452 5.19999 89.4125 5.93332 89.8818 6.88666C90.3658 7.83999 90.6078 8.97666 90.6078 10.2967V10.9567H82.3138C82.3578 11.8953 82.6072 12.592 83.0618 13.0467C83.5312 13.5013 84.1472 13.7287 84.9098 13.7287C85.4672 13.7287 85.9292 13.6113 86.2958 13.3767C86.6772 13.142 86.9485 12.7827 87.1098 12.2987L90.4318 12.4967C90.1238 13.67 89.4712 14.5867 88.4738 15.2467C87.4765 15.9067 86.2665 16.2367 84.8438 16.2367ZM82.3138 8.93266H87.2198C87.1758 8.06732 86.9338 7.42199 86.4938 6.99666C86.0685 6.57132 85.5112 6.35866 84.8218 6.35866C84.1325 6.35866 83.5605 6.58599 83.1058 7.04066C82.6658 7.48066 82.4018 8.11132 82.3138 8.93266ZM96.3645 15.9727L90.7325 0.352655H94.1865L98.3445 12.2107L102.502 0.352655H105.956L100.302 15.9727H96.3645ZM110.024 16.2367C108.807 16.2367 107.81 15.958 107.032 15.4007C106.27 14.8287 105.888 14.0367 105.888 13.0247C105.888 11.9833 106.211 11.184 106.856 10.6267C107.516 10.0547 108.484 9.63666 109.76 9.37266L113.566 8.62466C113.566 7.86199 113.39 7.28999 113.038 6.90866C112.701 6.51266 112.21 6.31466 111.564 6.31466C110.934 6.31466 110.442 6.46132 110.09 6.75466C109.738 7.03332 109.511 7.45132 109.408 8.00866L106.086 7.85466C106.306 6.56399 106.886 5.58866 107.824 4.92866C108.778 4.25399 110.024 3.91666 111.564 3.91666C113.324 3.91666 114.644 4.33466 115.524 5.17066C116.419 6.00666 116.866 7.23132 116.866 8.84466V12.8707C116.866 13.208 116.918 13.4353 117.02 13.5527C117.138 13.6553 117.306 13.7067 117.526 13.7067H117.856V15.9727C117.754 16.002 117.585 16.0313 117.35 16.0607C117.13 16.09 116.91 16.1047 116.69 16.1047C116.221 16.1047 115.781 16.024 115.37 15.8627C114.974 15.7013 114.652 15.43 114.402 15.0487C114.153 14.6527 114.028 14.0953 114.028 13.3767L114.314 13.5967C114.168 14.1247 113.904 14.5867 113.522 14.9827C113.156 15.3787 112.672 15.6867 112.07 15.9067C111.484 16.1267 110.802 16.2367 110.024 16.2367ZM110.816 13.9707C111.359 13.9707 111.836 13.868 112.246 13.6627C112.657 13.4427 112.98 13.1273 113.214 12.7167C113.449 12.306 113.566 11.822 113.566 11.2647V10.6927L110.882 11.2647C110.354 11.3673 109.951 11.5433 109.672 11.7927C109.408 12.0273 109.276 12.3353 109.276 12.7167C109.276 13.1127 109.408 13.4207 109.672 13.6407C109.936 13.8607 110.318 13.9707 110.816 13.9707ZM123.289 16.2367C122.072 16.2367 121.118 15.848 120.429 15.0707C119.754 14.2787 119.417 13.1787 119.417 11.7707V4.18066H122.717V11.0007C122.717 11.91 122.856 12.5773 123.135 13.0027C123.414 13.4133 123.854 13.6187 124.455 13.6187C125.13 13.6187 125.65 13.3913 126.017 12.9367C126.398 12.4673 126.589 11.7707 126.589 10.8467V4.18066H129.889V15.9727H126.875L126.787 12.5847L127.205 12.6727C127.029 13.846 126.611 14.7333 125.951 15.3347C125.291 15.936 124.404 16.2367 123.289 16.2367ZM135.86 15.9727C134.892 15.9727 134.137 15.7307 133.594 15.2467C133.051 14.7627 132.78 13.978 132.78 12.8927V0.352655H136.08V12.5407C136.08 12.8927 136.161 13.142 136.322 13.2887C136.483 13.4353 136.718 13.5087 137.026 13.5087H137.818V15.9727H135.86ZM143.916 15.9727C142.699 15.9727 141.804 15.694 141.232 15.1367C140.66 14.5647 140.374 13.6627 140.374 12.4307V1.40865H143.674V12.0347C143.674 12.6067 143.791 12.9953 144.026 13.2007C144.275 13.406 144.642 13.5087 145.126 13.5087H146.776V15.9727H143.916ZM138.482 6.64466V4.18066H146.776V6.64466H138.482Z" fill="white"/>
</svg>
